<svg width="24" height="24" viewBox="0 0 24 24" fill="none"
    xmlns="http://www.w3.org/2000/svg">
    <path d="M21 3V22.5H5.25C4.65326 22.5 4.08097 22.2629 3.65901 21.841C3.23705 21.419 3 20.8467 3 20.25C3 19.6533 3.23705 19.081 3.65901 18.659C4.08097 18.2371 4.65326 18 5.25 18H19.5V0H4.5C2.85 0 1.5 1.35 1.5 3V21C1.5 22.65 2.85 24 4.5 24H22.5V3H21Z" fill="#FD5002"/>
    <path d="M7.24612 12C7.08307 12 6.9278 11.9651 6.78028 11.8952C6.63276 11.8253 6.50078 11.6894 6.38432 11.4876C6.26786 11.2935 6.17469 11.0062 6.10481 10.6258C6.03494 10.2376 6 9.72516 6 9.08851C6 8.49068 6.03106 7.92003 6.09317 7.37655C6.15528 6.82531 6.24457 6.33618 6.36102 5.90916C6.47748 5.47438 6.61724 5.13276 6.78028 4.88432C6.94332 4.62811 7.12578 4.5 7.32764 4.5C7.50621 4.5 7.65373 4.5854 7.77019 4.75621C7.88665 4.92702 7.94488 5.17158 7.94488 5.48991C7.94488 5.73835 7.91382 6.06444 7.85171 6.46817C7.79736 6.87189 7.73137 7.30668 7.65373 7.77252C7.57609 8.23059 7.50621 8.67702 7.4441 9.1118C7.38975 9.53882 7.36258 9.90373 7.36258 10.2065C7.36258 10.2609 7.37034 10.3152 7.38587 10.3696C7.4014 10.4161 7.42469 10.4394 7.45575 10.4394C7.50233 10.4394 7.57997 10.3269 7.68866 10.1017C7.79736 9.87655 7.92935 9.58152 8.08463 9.21662C8.24767 8.84394 8.42236 8.44022 8.6087 8.00543C8.8028 7.57065 9.00466 7.14363 9.21429 6.72438C9.43168 6.29736 9.64907 5.91693 9.86646 5.58307C10.0528 5.29581 10.2741 5.07453 10.5303 4.91925C10.7865 4.76397 11.0233 4.68634 11.2407 4.68634C11.4348 4.68634 11.625 4.7368 11.8113 4.83773C12.0054 4.93866 12.1646 5.09006 12.2888 5.29193C12.413 5.49379 12.4752 5.74612 12.4752 6.04891C12.4752 6.16537 12.4596 6.35947 12.4286 6.63121C12.4053 6.89519 12.3742 7.19798 12.3354 7.5396C12.2966 7.87345 12.2578 8.21118 12.2189 8.5528C12.1801 8.88665 12.1452 9.18556 12.1141 9.44953C12.0908 9.71351 12.0792 9.89985 12.0792 10.0085C12.0792 10.0241 12.0792 10.0435 12.0792 10.0668C12.0792 10.1522 12.0831 10.2376 12.0908 10.323C12.0986 10.4006 12.1219 10.4394 12.1607 10.4394C12.2461 10.4394 12.3548 10.3424 12.4868 10.1483C12.6266 9.94643 12.7818 9.67857 12.9526 9.34472C13.1312 9.01087 13.3175 8.6382 13.5116 8.22671C13.7057 7.81522 13.9037 7.39208 14.1056 6.9573C14.3152 6.51475 14.521 6.0955 14.7228 5.69953C14.8781 5.36568 15.0101 5.15606 15.1188 5.07065C15.2275 4.97748 15.3323 4.9309 15.4332 4.9309C15.573 4.9309 15.7205 5.00078 15.8758 5.14053C16.0311 5.28028 16.1087 5.49767 16.1087 5.7927C16.1087 5.89363 16.1048 5.99457 16.097 6.0955C16.0893 6.19643 16.0621 6.30124 16.0155 6.40994C15.705 7.1941 15.3828 7.92003 15.0489 8.58773C14.7228 9.24767 14.3967 9.82221 14.0707 10.3113C13.7446 10.8005 13.4301 11.1809 13.1273 11.4526C12.8245 11.7244 12.5411 11.8602 12.2772 11.8602C11.7337 11.8602 11.3144 11.7166 11.0194 11.4293C10.7321 11.1343 10.5885 10.7384 10.5885 10.2415C10.5885 10.0551 10.6002 9.81832 10.6234 9.53106C10.6467 9.23603 10.6739 8.9177 10.705 8.57609C10.7438 8.22671 10.7826 7.88121 10.8214 7.5396C10.8602 7.19798 10.8991 6.88354 10.9379 6.59627C10.9534 6.48758 10.934 6.4177 10.8797 6.38665C10.8331 6.35559 10.7904 6.39053 10.7516 6.49146C10.6506 6.75543 10.5419 7.0427 10.4255 7.35326C10.309 7.66382 10.2003 7.93556 10.0994 8.16848C9.93634 8.55668 9.74612 8.97205 9.52873 9.4146C9.3191 9.85714 9.09006 10.2764 8.84162 10.6724C8.59317 11.0606 8.33307 11.3789 8.06134 11.6273C7.7896 11.8758 7.51786 12 7.24612 12Z" fill="white"/>
    <path d="M5.25195 19.5C5.05304 19.5 4.86228 19.579 4.72162 19.7197C4.58097 19.8603 4.50195 20.0511 4.50195 20.25C4.50195 20.4489 4.58097 20.6397 4.72162 20.7803C4.86228 20.921 5.05304 21 5.25195 21H19.5005V19.5H5.25195Z" fill="#FD5002"/>
</svg>
